#N canvas 327 68 734 645 10;
#X obj 320 465 dac~;
#X obj 319 95 vsl 15 128 0 1 0 0 empty empty empty 0 -9 0 10 -262144
-1 -1 0 1;
#X obj 53 154 receive pitch;
#X obj 318 21 receive amplitude;
#X msg 20 93 \; pd dsp \$1;
#X obj 20 73 tgl 15 0 empty empty empty 17 7 0 10 -262144 -1 -1 0 1
;
#X text 41 72 DSP On/Off;
#X obj 305 419 *~;
#X obj 506 359 line~;
#X msg 404 243 1 500;
#X obj 476 246 0 500;
#X obj 413 211 bng 15 250 50 0 empty empty empty 17 7 0 10 -262144
-1 -1;
#X obj 475 207 bng 15 250 50 0 empty empty empty 17 7 0 10 -262144
-1 -1;
#X obj 432 126 tgl 15 0 empty empty empty 17 7 0 10 -262144 -1 -1 0
1;
#X obj 401 72 receive enable;
#X obj 321 46 * 127;
#X obj 318 68 clip 0 127;
#X obj 420 161 sel 1 0;
#X obj 553 101;
#X obj 145 429 *~;
#X obj 19 215 * 10, f 10;
#X obj 59 297 osc~;
#X obj 223 367 *~ 0.9;
#X obj 128 279 osc~ 440;
#X connect 2 0 20 0;
#X connect 3 0 15 0;
#X connect 5 0 4 0;
#X connect 7 0 0 0;
#X connect 7 0 0 1;
#X connect 8 0 7 1;
#X connect 9 0 8 0;
#X connect 10 0 8 0;
#X connect 11 0 9 0;
#X connect 12 0 10 0;
#X connect 13 0 17 0;
#X connect 14 0 13 0;
#X connect 15 0 16 0;
#X connect 16 0 1 0;
#X connect 17 0 11 0;
#X connect 17 1 12 0;
#X connect 19 0 7 0;
#X connect 20 0 21 0;
#X connect 21 0 19 0;
#X connect 22 0 19 1;
#X connect 23 0 22 0;
